<?xml version="1.0" encoding="utf-8"?>
<!DOCTYPE svg PUBLIC "-//W3C//DTD SVG 1.0//EN" "http://www.w3.org/TR/2001/REC-SVG-20010904/DTD/svg10.dtd">
<svg version="1.0" xmlns="http://www.w3.org/2000/svg" width="500px" height="500px" viewBox="0 0 500 500" preserveAspectRatio="xMidYMid meet">
 <g fill="#004cfe">
  <path d="M216.5 448.6 c-4.4 -2.3 -12 -6.4 -17 -9.1 -4.9 -2.6 -13.5 -7.3 -19 -10.3 -5.5 -3 -13.4 -7.3 -17.5 -9.5 -4.1 -2.2 -7.9 -4.3 -8.5 -4.7 -0.5 -0.4 -4.6 -2.6 -9 -5 -4.4 -2.4 -10.2 -5.5 -13 -7 -2.7 -1.5 -8.4 -4.6 -12.5 -6.8 -4.1 -2.1 -9.5 -5.1 -12 -6.4 -2.5 -1.4 -9 -4.9 -14.5 -7.8 -5.5 -3 -12.7 -6.8 -16 -8.7 -3.3 -1.8 -9.7 -5.2 -14.3 -7.5 -4.6 -2.4 -9.8 -5.5 -11.5 -6.9 l-3.2 -2.7 -0.1 -85.8 c-0.1 -47.3 0.1 -87.9 0.5 -90.4 0.5 -4 0.9 -4.5 3.4 -4.8 1.6 -0.2 4.5 0.7 7 2.1 2.3 1.3 9.2 5 15.2 8.2 6.1 3.2 11.5 6.1 12 6.5 0.6 0.4 6 3.3 12 6.5 6.1 3.2 12.4 6.6 14 7.5 5 2.9 12.4 6.9 23.5 12.8 5.8 3 11 5.9 11.5 6.3 0.6 0.4 4.6 2.6 9 4.9 4.4 2.4 9.8 5.3 12 6.5 8.1 4.5 14.2 7.8 20 11 3.3 1.8 8.3 4.5 11 6 2.8 1.5 7.5 4.1 10.5 5.8 14.3 7.8 18.8 10.8 19.5 12.9 0.4 1.3 1 41.3 1.2 89 l0.5 86.7 -2.6 2.6 c-1.4 1.4 -2.9 2.5 -3.3 2.5 -0.4 0 -4.4 -2 -8.8 -4.4z"/>
  <path d="M242 219.1 c-5.7 -2.8 -16.3 -8.5 -34 -18.1 -5.8 -3.2 -15.4 -8.3 -21.5 -11.5 -6 -3.2 -11.4 -6.1 -12 -6.5 -0.5 -0.4 -5 -2.9 -10 -5.5 -4.9 -2.7 -10.8 -5.8 -13 -7 -7.6 -4.2 -17.1 -9.2 -36.2 -19.4 -10.5 -5.6 -19.7 -10.8 -20.3 -11.6 -2.3 -2.7 -0.3 -5.9 5.2 -8.7 6.1 -3.1 23.6 -12.4 32.3 -17.3 3.3 -1.8 9.6 -5.2 14 -7.5 4.4 -2.3 11.6 -6.3 15.9 -8.8 4.4 -2.4 13.2 -7.2 19.5 -10.5 6.4 -3.3 12.8 -6.8 14.3 -7.9 1.4 -1 2.8 -1.8 3.1 -1.8 0.2 0 4 -1.9 8.3 -4.3 10.1 -5.6 19.6 -10.8 30.8 -16.9 9.2 -5 13.6 -5.9 17.1 -3.5 1.1 0.8 9.4 5.2 18.5 9.9 20.4 10.6 29.6 15.5 33.5 17.8 1.7 0.9 7.5 4.1 13 7 5.5 2.9 10.5 5.6 11 6 0.6 0.4 5.1 2.9 10 5.5 18.7 9.9 22 11.7 23 12.5 0.6 0.4 5 2.9 9.9 5.5 4.9 2.5 9.9 5.2 11 6 2.2 1.3 14.5 8 18.3 9.9 2.6 1.3 4.4 4.1 3.8 5.8 -0.6 1.4 -3.2 2.9 -21.5 12.6 -5.8 3 -10.9 5.8 -11.5 6.2 -0.5 0.4 -5.5 3.1 -11 6 -5.5 2.9 -12 6.4 -14.5 7.8 -2.5 1.4 -7.9 4.3 -12 6.5 -4.1 2.1 -8.8 4.7 -10.5 5.7 -1.6 0.9 -6.8 3.8 -11.5 6.3 -4.7 2.4 -20.3 10.8 -34.7 18.6 -19 10.2 -27.2 14.1 -29.5 14 -1.8 0 -5.8 -1.3 -8.8 -2.8z"/>
 </g>
 <g fill="#ffffff">
  <path d="M274.9 451.6 l-2.4 -1.2 -0.3 -87.9 c-0.1 -60 0.1 -88.8 0.8 -90.6 0.7 -1.5 3.2 -3.6 6.3 -5.2 2.9 -1.5 7.5 -4 10.2 -5.5 2.8 -1.6 9.1 -5 14 -7.7 5 -2.6 10.4 -5.6 12 -6.5 1.7 -1 6.2 -3.4 10 -5.5 6.7 -3.6 14.6 -7.9 21 -11.5 1.7 -0.9 7.1 -3.8 12 -6.5 5 -2.6 9.5 -5.1 10 -5.5 0.6 -0.4 5.5 -3.1 11 -6 5.5 -2.9 12.3 -6.5 15 -8 2.8 -1.5 7.7 -4.2 11 -6 3.3 -1.8 8.3 -4.5 11 -6 5.8 -3.2 25.7 -13.7 29.7 -15.8 1.6 -0.7 3.8 -1.2 5 -1 l2.3 0.3 0.3 88.5 c0.2 57.5 -0.1 89.7 -0.7 92 -0.9 2.9 -2.1 4.1 -7.3 6.8 -6.8 3.5 -19.5 10.4 -26.8 14.4 -2.5 1.4 -8.1 4.4 -12.5 6.8 -4.4 2.4 -8.4 4.6 -9 5 -0.5 0.4 -5.9 3.3 -12 6.5 -6 3.2 -11.4 6.1 -12 6.5 -0.5 0.4 -4.8 2.7 -9.5 5.2 -4.7 2.5 -14.3 7.7 -21.5 11.5 -7.1 3.9 -16.6 9 -21 11.3 -20.1 10.7 -25.5 13.5 -32 17.1 -10 5.4 -11.8 6 -14.6 4.5z"/>
 </g>
</svg>